<svg width="512" height="512" viewBox="0 0 512 512" fill="none" xmlns="http://www.w3.org/2000/svg">
<path d="M408.509 299.06C420.492 284.399 442.095 282.229 456.756 294.212C471.416 306.196 473.587 327.799 461.603 342.46C435.612 374.258 361.757 431.053 256.51 431.233C256.344 431.235 256.177 431.24 256.01 431.24C150.496 431.24 76.4474 374.312 50.4148 342.464C38.4316 327.803 40.6021 306.201 55.2624 294.217C69.9232 282.233 91.5268 284.404 103.51 299.065C118.978 317.987 174.559 362.561 255.718 362.667C255.815 362.666 255.912 362.664 256.01 362.664C337.327 362.664 393.023 318.005 408.509 299.06Z" fill="#F25500"/>
<path d="M254.097 80.765C309.851 80.7651 355.049 125.962 355.049 181.716C355.049 237.47 309.851 282.667 254.097 282.667C198.343 282.667 153.145 237.47 153.145 181.716C153.145 125.962 198.342 80.765 254.097 80.765Z" fill="#F25500"/>
</svg>
