<svg width="654" height="191" viewBox="0 0 654 191" fill="none" xmlns="http://www.w3.org/2000/svg">
<path fill-rule="evenodd" clip-rule="evenodd" d="M194.663 118.496C201.04 110.695 212.535 109.54 220.336 115.916C228.137 122.293 229.291 133.788 222.915 141.589C209.063 158.536 169.661 188.828 113.516 188.828L112.204 188.822C56.7586 188.355 17.8631 158.404 4.11899 141.589C-2.25758 133.788 -1.10296 122.293 6.69809 115.916C14.4992 109.54 25.9944 110.695 32.3709 118.496C40.6109 128.576 70.2467 152.34 113.516 152.34C156.786 152.34 186.423 128.576 194.663 118.496Z" fill="#F25500"/>
<path d="M112.504 2.33789C142.171 2.338 166.22 26.3878 166.22 56.0547C166.22 85.7217 142.171 109.772 112.504 109.772C82.8364 109.772 58.7859 85.7218 58.7859 56.0547C58.7861 26.3877 82.8365 2.33789 112.504 2.33789Z" fill="#F25500"/>
<path d="M641.02 187.666H491.98V109.69H526.972V122.866H606.028V109.69H641.02V187.666ZM575.14 44.89V73.618H653.98V101.698H479.452V73.618H535.828V44.89H575.14ZM602.356 62.17L605.164 30.85H492.412V3.20201H642.316L637.348 62.17H602.356ZM606.028 160.018V147.274H526.972V160.018H606.028Z" fill="#F25500"/>
<path d="M320.608 2.33801V70.162H338.32V2.55402H371.152V180.754H287.776V2.33801H320.608ZM415.648 69.946H427.096V2.33801H459.928V182.914H427.096V102.778H415.648V182.914H382.816V2.33801H415.648V69.946ZM320.608 150.946H338.32V99.97H320.608V150.946Z" fill="#F25500"/>
</svg>
