<svg width="512" height="512" viewBox="0 0 512 512" fill="none" xmlns="http://www.w3.org/2000/svg">
<g clip-path="url(#clip0_1_2)">
<path d="M362.75 286.143C371.139 275.88 386.261 274.361 396.523 282.749C406.786 291.138 408.304 306.26 399.916 316.523C381.693 338.817 329.859 378.666 256 378.666H255.999C182.14 378.666 130.306 338.817 112.083 316.523C103.694 306.26 105.213 291.138 115.476 282.749C125.738 274.361 140.86 275.88 149.249 286.143C160.089 299.404 199.077 330.666 256 330.666C312.923 330.666 351.91 299.404 362.75 286.143Z" fill="#F25500"/>
<path d="M254.666 133.333C293.694 133.333 325.333 164.972 325.333 204C325.333 243.028 293.694 274.666 254.666 274.666C215.638 274.666 183.999 243.028 183.999 204C183.999 164.972 215.638 133.333 254.666 133.333Z" fill="#F25500"/>
</g>
<defs>
<clipPath id="clip0_1_2">
<rect width="512" height="512" fill="white"/>
</clipPath>
</defs>
</svg>
